<?xml version="1.0" encoding="UTF-8" standalone="no"?>
<!-- Created with Inkscape (http://www.inkscape.org/) -->

<svg
   xmlns:dc="http://purl.org/dc/elements/1.1/"
   xmlns:cc="http://creativecommons.org/ns#"
   xmlns:rdf="http://www.w3.org/1999/02/22-rdf-syntax-ns#"
   xmlns:svg="http://www.w3.org/2000/svg"
   xmlns="http://www.w3.org/2000/svg"
   xmlns:sodipodi="http://sodipodi.sourceforge.net/DTD/sodipodi-0.dtd"
   xmlns:inkscape="http://www.inkscape.org/namespaces/inkscape"
   width="402.3154mm"
   height="304.45227mm"
   viewBox="0 0 1425.527 1078.7679"
   id="svg2"
   version="1.1"
   inkscape:version="0.91 r"
   sodipodi:docname="vyvs-lim-villes-html.svg">
  <defs
     id="defs4" />
  <sodipodi:namedview
     id="base"
     pagecolor="#ffffff"
     bordercolor="#666666"
     borderopacity="1.0"
     inkscape:pageopacity="0.0"
     inkscape:pageshadow="2"
     inkscape:zoom="3.959798"
     inkscape:cx="776.50035"
     inkscape:cy="419.78744"
     inkscape:document-units="px"
     inkscape:current-layer="layer7"
     showgrid="false"
     inkscape:window-width="1920"
     inkscape:window-height="1028"
     inkscape:window-x="0"
     inkscape:window-y="0"
     inkscape:window-maximized="1"
     fit-margin-top="0"
     fit-margin-left="0"
     fit-margin-right="0"
     fit-margin-bottom="0" />
  <metadata
     id="metadata7">
    <rdf:RDF>
      <cc:Work
         rdf:about="">
        <dc:format>image/svg+xml</dc:format>
        <dc:type
           rdf:resource="http://purl.org/dc/dcmitype/StillImage" />
        <dc:title></dc:title>
      </cc:Work>
    </rdf:RDF>
  </metadata>
  <g
     inkscape:groupmode="layer"
     id="layer2"
     inkscape:label="Draveil"
     style="display:inline"
     transform="translate(679.88753,194.50809)">
    <path
       style="fill:none;fill-rule:evenodd;stroke:#000000;stroke-width:4;stroke-linecap:butt;stroke-linejoin:miter;stroke-miterlimit:4;stroke-dasharray:none;stroke-opacity:1"
       d="m -550.71429,255.21935 -73.57142,100 -46.42858,85.71428 -7.14285,60.71429 12.14285,46.42857 10,15.71429 62.14286,47.14285 30.71429,38.57143 83.57143,62.85714 31.42857,35 18.57143,26.42858 64.28571,55 60.71429,52.85714 226.428567,-183.57143 30.714286,-12.14286 6.428571,-42.85714 39.2857146,-13.57143 -16.4285716,-15 -3.571428,-8.57143 -7.142858,-1.42857 -4.285714,-27.85714 -15.714286,-10 -2.857142,-23.57143 L -85,505.93363 l -77.85714,35.71429 -167.85715,-211.42857 -45,35 -80.71428,-64.28572 -22.85714,-5 z"
       id="path3350"
       inkscape:connector-curvature="0" />
  </g>
  <g
     inkscape:groupmode="layer"
     id="layer3"
     inkscape:label="Vigneux"
     style="display:inline"
     transform="translate(679.88753,194.50809)">
    <path
       style="fill:none;fill-rule:evenodd;stroke:#000000;stroke-width:4;stroke-linecap:butt;stroke-linejoin:miter;stroke-miterlimit:4;stroke-dasharray:none;stroke-opacity:1"
       d="m -86.428572,505.21935 -75.714288,40 -168.57143,-215.71429 -46.42857,35.71429 -87.14285,-68.57143 -12.85715,-1.42857 c 0,0 -15.71428,-9.28572 -33.57142,-20 -5.54639,-3.32783 -42.14286,-19.28572 -42.14286,-19.28572 l 42.14285,-129.28571 18.57143,-39.285716 121.42857,-89.2857147 47.85715,-20.7142853 81.42857,-17.857143 28.57143,-13.571429 18.57143,17.857143 13.57142,-9.285714 -8.57142,51.4285712 -15,14.9999998 -17.85715,44.285715 -20,24.285714 -15.71428,12.857139 4.28571,47.14286 40,35.71429 -7.14286,17.14285 -1.42857,20.71429 19.28572,22.85714 9.28571,25 6.42857,24.28572 12.85715,24.28571 0,11.42857 -7.85715,2.85715 6.42857,12.85714 6.42858,20.71428 36.42857,32.85715 34.999997,21.42857 -0.714286,54.28571 z"
       id="path4153"
       inkscape:connector-curvature="0"
       sodipodi:nodetypes="ccccccscccccccccccccccccccccccccccccc" />
  </g>
  <g
     inkscape:groupmode="layer"
     id="layer4"
     inkscape:label="Montgeron"
     style="display:inline"
     transform="translate(679.88753,194.50809)">
    <path
       style="fill:none;fill-rule:evenodd;stroke:#000000;stroke-width:4;stroke-linecap:butt;stroke-linejoin:miter;stroke-miterlimit:4;stroke-dasharray:none;stroke-opacity:1"
       d="M 247.85714,523.79078 123.57143,574.50506 45,665.21935 -2.1428571,628.07649 -17.142857,610.21935 l -10,-6.42857 -5.714286,-27.14286 -15,-10 -3.571428,-17.85714 -34.285715,-45 L -100,475.93363 l 1.428571,-56.42857 -42.857141,-26.42857 -14.28572,-15.71429 -15,-12.14285 -8.57142,-31.42857 6.42857,-12.14286 -16.42857,-29.28572 -10,-42.14285 -23.57143,-28.57143 0.71428,-18.57143 7.14286,-15.71429 -40,-39.28571 -2.85714,-46.42857 16.42857,-12.857145 18.57143,-23.571428 13.57143,-28.571429 7.85714,-22.142857 15,-7.8571431 8.57143,1.4285714 30,67.1428577 31.42857,13.571428 4.28571,-10.714286 26.428574,6.428572 23.571429,17.857139 15,20 22.857143,9.28572 17.1428568,2.14286 L 7.1428572,122.3622 20,123.07649 42.142857,118.79078 65.714286,101.64792 75,98.076489 94.285714,120.93363 104.28571,140.21935 98.571429,174.50506 90,175.93363 l -4.285714,29.28572 15.714284,7.85714 -0.71428,35 L 82.142857,276.64792 80,308.07649 77.857143,320.93363 Z"
       id="path4156"
       inkscape:connector-curvature="0"
       sodipodi:nodetypes="cccccccccccccccccccccccccccccccccccccccccccccccccccccc" />
  </g>
  <g
     inkscape:groupmode="layer"
     id="layer5"
     inkscape:label="Crosne"
     style="display:inline"
     transform="translate(679.88753,194.50809)">
    <path
       style="fill:none;fill-rule:evenodd;stroke:#000000;stroke-width:4;stroke-linecap:butt;stroke-linejoin:miter;stroke-miterlimit:4;stroke-dasharray:none;stroke-opacity:1"
       d="m -112.14286,77.362204 26.428574,5.714285 23.571429,17.857141 15.714285,22.85714 24.285715,7.14286 15.7142854,2.14286 32.1428576,-27.14286 5,-27.142855 L 48.571429,54.505061 67.142857,41.647918 85,50.933632 l 12.142857,-15 7.142853,-40.7142855 -8.571424,-10.0000005 0.714286,-11.428571 7.142858,-3.571429 -4.285716,-25 -12.142857,-4.285714 6.428572,-10.714286 2.142857,-6.428571 -37.857143,5 -24.285714,7.142857 L 32.142857,-88.352082 24.285714,-106.92351 12.142857,-93.352082 10,-69.780654 l -17.1428572,3.571429 -5.7142858,6.428571 -15,0 L -30,-31.923511 -61.428571,-31.209225 -77.142857,-39.066368 -90,-28.352082 l -12.85714,-3.571429 -2.14286,8.571429 40.714286,10.714286 -1.428572,10.7142853 -12.857143,-2.1428571 -3.571428,12.1428571 -13.571429,-0.7142857 -15.000004,-15.7142857 -24.28571,0 -2.14286,29.2857141 6.42857,24.285715 17.85715,22.857142 z"
       id="path4159"
       inkscape:connector-curvature="0"
       sodipodi:nodetypes="cccccccccccccccccccccccccccccccccccccccccccccc" />
  </g>
  <g
     inkscape:groupmode="layer"
     id="layer6"
     inkscape:label="Yerres"
     style="display:inline"
     transform="translate(679.88753,194.50809)">
    <path
       style="fill:none;fill-rule:evenodd;stroke:#000000;stroke-width:4;stroke-linecap:butt;stroke-linejoin:miter;stroke-miterlimit:4;stroke-dasharray:none;stroke-opacity:1"
       d="m 47.857143,54.505061 -18.571429,22.857143 -2.857143,31.428576 -17.1428567,12.14285 29.9999997,0.71429 34.642857,-23.57143 20.357143,22.5 9.642856,18.92858 -4.28571,33.57142 -10.357145,2.5 -3.571429,28.21429 15.000004,8.57142 0.71428,35.71429 -14.642856,20.71428 -4.999999,7.85715 L 80,305.21935 l -2.142857,16.07143 73.214287,85.71428 66.07143,-61.07143 -14.28572,-16.42857 -3.57143,-25 3.57143,-5 20,-13.57143 -30,-27.14285 1.42857,-30 62.85715,1.42857 8.57143,-28.57143 12.14285,-20.71429 53.57143,-6.42857 9.28572,-12.85714 L 325,143.79078 l 36.42857,-24.28572 42.85714,-13.57143 21.42858,6.42857 30.71428,-12.14285 14.28572,2.14285 12.85714,-0.71428 3.57143,-2.857145 -30.71429,-35 6.42857,-5 c 0,0 -11.42857,-48.571429 -12.85714,-52.1428571 -1.42857,-3.5714286 -0.71429,-66.4285719 -0.71429,-66.4285719 l -2.14285,-52.857146 -24.28572,-41.42857 11.42857,-9.28571 -20,-5.71429 -12.85714,-20 -2.14286,12.85714 -16.42857,7.85715 -7.85714,-0.71429 0.71429,-12.85714 -40,41.42857 -35,-32.85714 -171.42858,86.428569 -28.57142,0.714286 -12.142861,27.142857 12.142861,4.285714 4.28571,24.285715 -10.714287,4.285714 1.428573,12.857143 10.000004,8.5714285 L 98.571429,36.647918 84.285715,50.933632 65.714286,42.362204 Z"
       id="path4162"
       inkscape:connector-curvature="0"
       sodipodi:nodetypes="ccccccccccccccccccccccccccccccccccccccccscccccccccccccccccccccccc" />
  </g>
  <g
     inkscape:groupmode="layer"
     id="layer7"
     inkscape:label="Brunoy"
     style="display:inline"
     transform="translate(679.88753,194.50809)">
    <path
       style="fill:none;fill-rule:evenodd;stroke:#000000;stroke-width:4;stroke-linecap:butt;stroke-linejoin:miter;stroke-miterlimit:4;stroke-dasharray:none;stroke-opacity:1"
       d="m 149.25003,405.86458 67.93277,-60.10408 -15.15229,-17.67767 -3.03046,-23.73859 4.54569,-6.06091 18.18274,-13.13198 -29.29442,-27.27412 2.52538,-29.7995 61.11423,2.0203 10.10153,-27.77919 12.12183,-21.71828 53.03301,-6.56599 9.59644,-12.12183 -15.15228,-18.18275 35.35534,-24.24366 42.93148,-13.63706 20.70813,6.06091 32.32488,-11.61675 4.54568,3.53553 -0.50507,9.09138 28.78934,-1.01016 0,15.15229 5.55584,12.62691 32.32489,1.01015 3.53553,9.09137 1.51523,9.09138 19.1929,1.51523 0,22.22335 6.06091,9.09138 -8.5863,7.07106 -16.16244,-1.51523 -30.30457,2.52539 -9.09138,9.59645 -5.55583,13.13198 0,26.76904 -37.88072,44.44671 -28.78935,6.06092 -17.1726,15.65736 -13.63705,21.71828 -4.04061,26.76904 1.01015,28.28428 -2.52538,11.11167 -24.24366,22.72844 63.13453,30.80965 -131.82491,117.68277 z"
       id="path4186"
       inkscape:connector-curvature="0"
       sodipodi:nodetypes="cccccccccccccccccccccccccccccccccccccccccccccc" />
  </g>
  <g
     inkscape:groupmode="layer"
     id="layer8"
     inkscape:label="Epinay"
     style="display:inline"
     transform="translate(679.88753,194.50809)">
    <path
       style="fill:none;fill-rule:evenodd;stroke:#000000;stroke-width:4;stroke-linecap:butt;stroke-linejoin:miter;stroke-miterlimit:4;stroke-dasharray:none;stroke-opacity:1"
       d="m 292.94424,573.5499 130.81475,-115.66247 -64.64976,-31.8198 28.78935,-25.75889 -0.50508,-33.33504 3.53554,-31.31473 17.17259,-22.72843 13.13198,-12.12183 22.22336,-5.55584 10.10152,-6.56599 35.35534,-37.88072 0.50508,-28.78935 5.05076,-14.14213 10.10153,-7.57615 19.69797,-2.52538 12.12183,8.08122 12.62691,5.55584 11.61675,29.7995 19.1929,32.32488 -2.52538,30.80965 -2.52538,20.70813 -25.75889,18.18275 -26.26397,9.09137 -8.08122,14.64721 -3.03046,6.56599 -24.74873,7.07107 -10.6066,17.67767 2.0203,17.67767 20.20305,14.14214 -0.50507,43.94163 -5.05076,26.76905 -15.65737,4.0406 -6.06092,10.10153 1.01016,15.65736 16.66751,22.22336 18.18275,13.63706 -168.1904,73.74114 -15.65737,-14.64722 -2.0203,-58.58884 z"
       id="path4189"
       inkscape:connector-curvature="0"
       sodipodi:nodetypes="cccccccccccccccccccccccccccccccccccccccc" />
  </g>
  <g
     inkscape:groupmode="layer"
     id="layer9"
     inkscape:label="Boussy"
     style="display:inline"
     transform="translate(679.88753,194.50809)">
    <path
       style="fill:none;fill-rule:evenodd;stroke:#000000;stroke-width:4;stroke-linecap:butt;stroke-linejoin:miter;stroke-miterlimit:4;stroke-dasharray:none;stroke-opacity:1"
       d="m 492.95444,501.82907 8.08122,-69.70053 -23.73858,-18.18274 -1.01015,-20.20306 15.65736,-14.64721 11.61675,-5.55584 10.10153,0.50508 4.54569,-16.66752 8.58629,-8.08122 16.16244,-2.52538 14.14214,-7.57614 13.63706,-12.12183 7.57614,-10.10153 -1.51523,-9.09137 4.54569,-26.76904 -7.07107,-16.66752 36.36549,-19.69798 4.04061,48.48733 6.566,1.51523 39.90102,-37.37565 22.72843,18.68782 -14.14213,19.69798 12.12183,29.29442 5.05076,2.02031 17.67767,-10.10153 0.50508,16.66752 -9.09138,5.05076 2.02031,8.5863 11.61675,1.01015 15.15229,7.57614 2.52538,10.10153 10.10153,1.51523 6.06091,12.12183 -3.53553,10.10152 -35.86042,22.72843 -69.70052,29.29443 -34.85026,63.63961 -46.9721,45.45687 -27.27412,-20.70813 -12.6269,-3.03046 z"
       id="path4192"
       inkscape:connector-curvature="0"
       sodipodi:nodetypes="ccccccccccccccccccccccccccccccccccccccccc" />
    <path
       style="fill:none;fill-rule:evenodd;stroke:#000000;stroke-width:4;stroke-linecap:butt;stroke-linejoin:miter;stroke-miterlimit:4;stroke-dasharray:none;stroke-opacity:1"
       d="m 678.82251,425.05747 -45.45686,18.18275 -27.7792,53.53808 -53.03301,55.05332 -25.25381,-21.21321 -18.18275,-6.06091 -16.16244,-22.22336 -16.66751,4.04061 -5.05077,10.10153 1.01016,14.64721 18.18274,25.25381 16.66752,10.60661 -166.67517,73.23606 85.86296,104.04571 -0.50507,4.54568 72.22591,83.33759 58.58884,-42.93148 44.95179,44.44671 39.90103,-33.84011 -24.74874,-27.7792 3.03046,-7.07106 36.87056,-23.73859 36.87057,-63.13453 -2.52538,-7.57615 20.70813,-10.6066 -5.55584,-16.66752 26.76904,-12.6269 -3.53553,-22.22336 0,-15.15229 -61.11423,-86.87312 -1.51523,-35.35534 10.6066,-18.68782 0,-15.15229 z"
       id="path4194"
       inkscape:connector-curvature="0" />
  </g>
</svg>
