<?xml version="1.0" encoding="UTF-8" standalone="no"?>
<!-- Created with Inkscape (http://www.inkscape.org/) -->

<svg
   xmlns:dc="http://purl.org/dc/elements/1.1/"
   xmlns:cc="http://creativecommons.org/ns#"
   xmlns:rdf="http://www.w3.org/1999/02/22-rdf-syntax-ns#"
   xmlns:svg="http://www.w3.org/2000/svg"
   xmlns="http://www.w3.org/2000/svg"
   xmlns:sodipodi="http://sodipodi.sourceforge.net/DTD/sodipodi-0.dtd"
   xmlns:inkscape="http://www.inkscape.org/namespaces/inkscape"
   width="113.54187"
   height="113.54187"
   id="svg29702"
   version="1.1"
   inkscape:version="0.47 r22583"
   sodipodi:docname="Nouveau document 3">
  <defs
     id="defs29704">
    <inkscape:perspective
       sodipodi:type="inkscape:persp3d"
       inkscape:vp_x="0 : 526.18109 : 1"
       inkscape:vp_y="0 : 1000 : 0"
       inkscape:vp_z="744.09448 : 526.18109 : 1"
       inkscape:persp3d-origin="372.04724 : 350.78739 : 1"
       id="perspective29710" />
    <inkscape:perspective
       id="perspective29720"
       inkscape:persp3d-origin="0.5 : 0.33333333 : 1"
       inkscape:vp_z="1 : 0.5 : 1"
       inkscape:vp_y="0 : 1000 : 0"
       inkscape:vp_x="0 : 0.5 : 1"
       sodipodi:type="inkscape:persp3d" />
    <filter
       color-interpolation-filters="sRGB"
       inkscape:collect="always"
       id="filter32465">
      <feGaussianBlur
         inkscape:collect="always"
         stdDeviation="5.017857"
         id="feGaussianBlur32467" />
    </filter>
  </defs>
  <sodipodi:namedview
     id="base"
     pagecolor="#ffffff"
     bordercolor="#666666"
     borderopacity="1.0"
     inkscape:pageopacity="0.0"
     inkscape:pageshadow="2"
     inkscape:zoom="0.35"
     inkscape:cx="280.34236"
     inkscape:cy="-126.0862"
     inkscape:document-units="px"
     inkscape:current-layer="layer1"
     showgrid="false"
     inkscape:window-width="550"
     inkscape:window-height="481"
     inkscape:window-x="827"
     inkscape:window-y="216"
     inkscape:window-maximized="0" />
  <metadata
     id="metadata29707">
    <rdf:RDF>
      <cc:Work
         rdf:about="">
        <dc:format>image/svg+xml</dc:format>
        <dc:type
           rdf:resource="http://purl.org/dc/dcmitype/StillImage" />
        <dc:title></dc:title>
      </cc:Work>
    </rdf:RDF>
  </metadata>
  <g
     inkscape:label="Calque 1"
     inkscape:groupmode="layer"
     id="layer1"
     transform="translate(-94.657638,-292.73411)">
    <g
       style="display:inline;overflow:visible"
       id="g29574"
       transform="translate(543.36084,-107.45073)">
      <g
         inkscape:label="Calque 1"
         id="g32439"
         transform="matrix(0.50507952,0,0,0.50507952,-570.15318,253.73088)"
         style="fill:#000000;stroke:#000000;stroke-opacity:1;overflow:visible;filter:url(#filter32465)">
        <rect
           style="fill:#000000;fill-opacity:1;fill-rule:nonzero;stroke:#000000;stroke-width:15;stroke-linecap:square;stroke-linejoin:miter;stroke-miterlimit:4;stroke-opacity:1;stroke-dasharray:none;stroke-dashoffset:1.50000015"
           id="rect32441"
           width="185.71428"
           height="185.71428"
           x="260"
           y="309.50504"
           ry="5.8772511" />
        <path
           style="fill:#000000;fill-opacity:0.84232333;fill-rule:nonzero;stroke:#000000;stroke-width:15;stroke-linecap:square;stroke-linejoin:miter;stroke-miterlimit:4;stroke-opacity:1;stroke-dasharray:none;stroke-dashoffset:1.50000015"
           d="m 276.28106,410.937 c 6.31037,-12.82478 20.13682,-23.55431 36.2367,-31.58371 10.76695,-3.14185 23.96151,-2.25841 33.14492,2.72913 11.11138,5.75904 17.91721,14.33196 22.64067,22.95963 4.05359,3.58514 11.30534,7.01765 18.25338,4.86709 9.365,-3.14098 14.05424,-9.85697 18.80948,-15.69012 2.96871,-4.50276 10.74842,-6.51163 17.52805,-7.53209 7.10152,0.0592 -3.03619,3.74035 -4.32417,5.17348 -9.34797,8.31982 -15.30906,19.00002 -29.46537,24.42226 -10.11475,3.8861 -24.1438,2.53478 -31.57281,-3.57707 -10.23534,-7.90472 -12.22665,-19.72673 -25.70166,-25.91596 -6.76805,-3.32366 -17.10467,-3.76236 -23.33959,0.37902 -10.462,6.374 -13.87678,16.57259 -25.6828,22.11749 -2.56346,2.14851 -7.63304,4.66973 -11.33334,4.25545 1.21434,-1.1211 3.14884,-1.81036 4.80654,-2.6046 z"
           id="path32443" />
        <path
           style="fill:#000000;fill-opacity:0.84232333;fill-rule:nonzero;stroke:#000000;stroke-width:15;stroke-linecap:square;stroke-linejoin:miter;stroke-miterlimit:4;stroke-opacity:1;stroke-dasharray:none;stroke-dashoffset:1.50000015"
           d="m 277.13123,452.44756 c 6.31037,-12.82478 20.13682,-23.55431 36.2367,-31.58371 10.76695,-3.14185 23.96151,-2.25841 33.14492,2.72913 11.11138,5.75904 17.91721,14.33196 22.64067,22.95963 4.05359,3.58514 11.30534,7.01765 18.25338,4.86709 9.365,-3.14098 14.05424,-9.85697 18.80948,-15.69012 2.96871,-4.50276 10.74842,-6.51163 17.52805,-7.53209 7.10152,0.0592 -3.03619,3.74035 -4.32417,5.17348 -9.34797,8.31982 -15.30906,19.00002 -29.46537,24.42226 -10.11475,3.8861 -24.1438,2.53478 -31.57281,-3.57707 -10.23534,-7.90472 -12.22665,-19.72673 -25.70166,-25.91596 -6.76805,-3.32366 -17.10467,-3.76236 -23.33959,0.37902 -10.462,6.374 -13.87678,16.57259 -25.6828,22.11749 -2.56346,2.14851 -7.63304,4.66973 -11.33334,4.25545 1.21434,-1.1211 3.14884,-1.81036 4.80654,-2.6046 z"
           id="path32445" />
        <path
           style="fill:#000000;fill-opacity:0.84232333;fill-rule:nonzero;stroke:#000000;stroke-width:15;stroke-linecap:square;stroke-linejoin:miter;stroke-miterlimit:4;stroke-opacity:1;stroke-dasharray:none;stroke-dashoffset:1.50000015"
           d="m 276.41695,368.16185 c 6.31037,-12.82478 20.13682,-23.55431 36.2367,-31.58371 10.76695,-3.14185 23.96151,-2.25841 33.14492,2.72913 11.11138,5.75904 17.91721,14.33196 22.64067,22.95963 4.05359,3.58514 11.30534,7.01765 18.25338,4.86709 9.365,-3.14098 14.05424,-9.85697 18.80948,-15.69012 2.96871,-4.50276 10.74842,-6.51163 17.52805,-7.53209 7.10152,0.0592 -3.03619,3.74035 -4.32417,5.17348 -9.34797,8.31982 -15.30906,19.00002 -29.46537,24.42226 -10.11475,3.8861 -24.1438,2.53478 -31.57281,-3.57707 -10.23534,-7.90472 -12.22665,-19.72673 -25.70166,-25.91596 -6.76805,-3.32366 -17.10467,-3.76236 -23.33959,0.37902 -10.462,6.374 -13.87678,16.57259 -25.6828,22.11749 -2.56346,2.14851 -7.63304,4.66973 -11.33334,4.25545 1.21434,-1.1211 3.14884,-1.81036 4.80654,-2.6046 z"
           id="path32447" />
      </g>
      <g
         inkscape:label="Calque 1"
         id="g32428"
         transform="matrix(0.50507952,0,0,0.50507952,-572.34851,250.89257)"
         style="overflow:visible">
        <rect
           style="fill:#2690d4;fill-opacity:1;fill-rule:nonzero;stroke:#2690d4;stroke-width:15;stroke-linecap:square;stroke-linejoin:miter;stroke-miterlimit:4;stroke-opacity:1;stroke-dasharray:none;stroke-dashoffset:1.50000015"
           id="rect32430"
           width="185.71428"
           height="185.71428"
           x="260"
           y="309.50504"
           ry="5.8772511" />
        <path
           style="fill:#ffffff;fill-opacity:0.84232333;fill-rule:nonzero;stroke:none"
           d="m 276.28106,410.937 c 6.31037,-12.82478 20.13682,-23.55431 36.2367,-31.58371 10.76695,-3.14185 23.96151,-2.25841 33.14492,2.72913 11.11138,5.75904 17.91721,14.33196 22.64067,22.95963 4.05359,3.58514 11.30534,7.01765 18.25338,4.86709 9.365,-3.14098 14.05424,-9.85697 18.80948,-15.69012 2.96871,-4.50276 10.74842,-6.51163 17.52805,-7.53209 7.10152,0.0592 -3.03619,3.74035 -4.32417,5.17348 -9.34797,8.31982 -15.30906,19.00002 -29.46537,24.42226 -10.11475,3.8861 -24.1438,2.53478 -31.57281,-3.57707 -10.23534,-7.90472 -12.22665,-19.72673 -25.70166,-25.91596 -6.76805,-3.32366 -17.10467,-3.76236 -23.33959,0.37902 -10.462,6.374 -13.87678,16.57259 -25.6828,22.11749 -2.56346,2.14851 -7.63304,4.66973 -11.33334,4.25545 1.21434,-1.1211 3.14884,-1.81036 4.80654,-2.6046 z"
           id="path32433" />
        <path
           style="fill:#ffffff;fill-opacity:0.84232333;fill-rule:nonzero;stroke:none"
           d="m 277.13123,452.44756 c 6.31037,-12.82478 20.13682,-23.55431 36.2367,-31.58371 10.76695,-3.14185 23.96151,-2.25841 33.14492,2.72913 11.11138,5.75904 17.91721,14.33196 22.64067,22.95963 4.05359,3.58514 11.30534,7.01765 18.25338,4.86709 9.365,-3.14098 14.05424,-9.85697 18.80948,-15.69012 2.96871,-4.50276 10.74842,-6.51163 17.52805,-7.53209 7.10152,0.0592 -3.03619,3.74035 -4.32417,5.17348 -9.34797,8.31982 -15.30906,19.00002 -29.46537,24.42226 -10.11475,3.8861 -24.1438,2.53478 -31.57281,-3.57707 -10.23534,-7.90472 -12.22665,-19.72673 -25.70166,-25.91596 -6.76805,-3.32366 -17.10467,-3.76236 -23.33959,0.37902 -10.462,6.374 -13.87678,16.57259 -25.6828,22.11749 -2.56346,2.14851 -7.63304,4.66973 -11.33334,4.25545 1.21434,-1.1211 3.14884,-1.81036 4.80654,-2.6046 z"
           id="path32435" />
        <path
           style="fill:#ffffff;fill-opacity:0.84232333;fill-rule:nonzero;stroke:none"
           d="m 276.41695,368.16185 c 6.31037,-12.82478 20.13682,-23.55431 36.2367,-31.58371 10.76695,-3.14185 23.96151,-2.25841 33.14492,2.72913 11.11138,5.75904 17.91721,14.33196 22.64067,22.95963 4.05359,3.58514 11.30534,7.01765 18.25338,4.86709 9.365,-3.14098 14.05424,-9.85697 18.80948,-15.69012 2.96871,-4.50276 10.74842,-6.51163 17.52805,-7.53209 7.10152,0.0592 -3.03619,3.74035 -4.32417,5.17348 -9.34797,8.31982 -15.30906,19.00002 -29.46537,24.42226 -10.11475,3.8861 -24.1438,2.53478 -31.57281,-3.57707 -10.23534,-7.90472 -12.22665,-19.72673 -25.70166,-25.91596 -6.76805,-3.32366 -17.10467,-3.76236 -23.33959,0.37902 -10.462,6.374 -13.87678,16.57259 -25.6828,22.11749 -2.56346,2.14851 -7.63304,4.66973 -11.33334,4.25545 1.21434,-1.1211 3.14884,-1.81036 4.80654,-2.6046 z"
           id="path32437" />
      </g>
    </g>
  </g>
</svg>
