<?xml version="1.0" encoding="UTF-8" standalone="no"?>
<!-- Created with Inkscape (http://www.inkscape.org/) -->

<svg
   xmlns:dc="http://purl.org/dc/elements/1.1/"
   xmlns:cc="http://creativecommons.org/ns#"
   xmlns:rdf="http://www.w3.org/1999/02/22-rdf-syntax-ns#"
   xmlns:svg="http://www.w3.org/2000/svg"
   xmlns="http://www.w3.org/2000/svg"
   xmlns:sodipodi="http://sodipodi.sourceforge.net/DTD/sodipodi-0.dtd"
   xmlns:inkscape="http://www.inkscape.org/namespaces/inkscape"
   width="113.54187"
   height="113.54187"
   id="svg29702"
   version="1.1"
   inkscape:version="0.47 r22583"
   sodipodi:docname="pict_biblio.svg"
   inkscape:export-filename="C:\Documents and Settings\rtrujillo\Bureau\pict_biblio.png"
   inkscape:export-xdpi="90"
   inkscape:export-ydpi="90">
  <defs
     id="defs29704">
    <inkscape:perspective
       sodipodi:type="inkscape:persp3d"
       inkscape:vp_x="0 : 526.18109 : 1"
       inkscape:vp_y="0 : 1000 : 0"
       inkscape:vp_z="744.09448 : 526.18109 : 1"
       inkscape:persp3d-origin="372.04724 : 350.78739 : 1"
       id="perspective29710" />
    <inkscape:perspective
       id="perspective29720"
       inkscape:persp3d-origin="0.5 : 0.33333333 : 1"
       inkscape:vp_z="1 : 0.5 : 1"
       inkscape:vp_y="0 : 1000 : 0"
       inkscape:vp_x="0 : 0.5 : 1"
       sodipodi:type="inkscape:persp3d" />
    <filter
       color-interpolation-filters="sRGB"
       inkscape:collect="always"
       id="filter32465">
      <feGaussianBlur
         inkscape:collect="always"
         stdDeviation="5.017857"
         id="feGaussianBlur32467" />
    </filter>
    <inkscape:perspective
       id="perspective3624"
       inkscape:persp3d-origin="0.5 : 0.33333333 : 1"
       inkscape:vp_z="1 : 0.5 : 1"
       inkscape:vp_y="0 : 1000 : 0"
       inkscape:vp_x="0 : 0.5 : 1"
       sodipodi:type="inkscape:persp3d" />
    <inkscape:perspective
       id="perspective3646"
       inkscape:persp3d-origin="0.5 : 0.33333333 : 1"
       inkscape:vp_z="1 : 0.5 : 1"
       inkscape:vp_y="0 : 1000 : 0"
       inkscape:vp_x="0 : 0.5 : 1"
       sodipodi:type="inkscape:persp3d" />
    <inkscape:perspective
       id="perspective2901"
       inkscape:persp3d-origin="0.5 : 0.33333333 : 1"
       inkscape:vp_z="1 : 0.5 : 1"
       inkscape:vp_y="0 : 1000 : 0"
       inkscape:vp_x="0 : 0.5 : 1"
       sodipodi:type="inkscape:persp3d" />
  </defs>
  <sodipodi:namedview
     id="base"
     pagecolor="#ffffff"
     bordercolor="#666666"
     borderopacity="1.0"
     inkscape:pageopacity="0.0"
     inkscape:pageshadow="2"
     inkscape:zoom="1.979899"
     inkscape:cx="-187.55148"
     inkscape:cy="60.446827"
     inkscape:document-units="px"
     inkscape:current-layer="g32428"
     showgrid="false"
     inkscape:window-width="1680"
     inkscape:window-height="990"
     inkscape:window-x="-4"
     inkscape:window-y="-4"
     inkscape:window-maximized="1" />
  <metadata
     id="metadata29707">
    <rdf:RDF>
      <cc:Work
         rdf:about="">
        <dc:format>image/svg+xml</dc:format>
        <dc:type
           rdf:resource="http://purl.org/dc/dcmitype/StillImage" />
        <dc:title></dc:title>
      </cc:Work>
    </rdf:RDF>
  </metadata>
  <g
     inkscape:label="Calque 1"
     inkscape:groupmode="layer"
     id="layer1"
     transform="translate(-94.657638,-292.73411)">
    <g
       style="display:inline;overflow:visible"
       id="g29574"
       transform="translate(543.36084,-107.45073)">
      <g
         inkscape:label="Calque 1"
         id="g32439"
         transform="matrix(0.50507952,0,0,0.50507952,-570.15318,253.73088)"
         style="fill:#000000;stroke:#000000;stroke-opacity:1;overflow:visible;filter:url(#filter32465)">
        <rect
           style="fill:#000000;fill-opacity:1;fill-rule:nonzero;stroke:#000000;stroke-width:15;stroke-linecap:square;stroke-linejoin:miter;stroke-miterlimit:4;stroke-opacity:1;stroke-dasharray:none;stroke-dashoffset:1.50000015"
           id="rect32441"
           width="185.71428"
           height="185.71428"
           x="260"
           y="309.50504"
           ry="5.8772511" />
        <path
           style="fill:#000000;fill-opacity:0.84232333;fill-rule:nonzero;stroke:#000000;stroke-width:15;stroke-linecap:square;stroke-linejoin:miter;stroke-miterlimit:4;stroke-opacity:1;stroke-dasharray:none;stroke-dashoffset:1.50000015"
           d="m 276.28106,410.937 c 6.31037,-12.82478 20.13682,-23.55431 36.2367,-31.58371 10.76695,-3.14185 23.96151,-2.25841 33.14492,2.72913 11.11138,5.75904 17.91721,14.33196 22.64067,22.95963 4.05359,3.58514 11.30534,7.01765 18.25338,4.86709 9.365,-3.14098 14.05424,-9.85697 18.80948,-15.69012 2.96871,-4.50276 10.74842,-6.51163 17.52805,-7.53209 7.10152,0.0592 -3.03619,3.74035 -4.32417,5.17348 -9.34797,8.31982 -15.30906,19.00002 -29.46537,24.42226 -10.11475,3.8861 -24.1438,2.53478 -31.57281,-3.57707 -10.23534,-7.90472 -12.22665,-19.72673 -25.70166,-25.91596 -6.76805,-3.32366 -17.10467,-3.76236 -23.33959,0.37902 -10.462,6.374 -13.87678,16.57259 -25.6828,22.11749 -2.56346,2.14851 -7.63304,4.66973 -11.33334,4.25545 1.21434,-1.1211 3.14884,-1.81036 4.80654,-2.6046 z"
           id="path32443" />
        <path
           style="fill:#000000;fill-opacity:0.84232333;fill-rule:nonzero;stroke:#000000;stroke-width:15;stroke-linecap:square;stroke-linejoin:miter;stroke-miterlimit:4;stroke-opacity:1;stroke-dasharray:none;stroke-dashoffset:1.50000015"
           d="m 277.13123,452.44756 c 6.31037,-12.82478 20.13682,-23.55431 36.2367,-31.58371 10.76695,-3.14185 23.96151,-2.25841 33.14492,2.72913 11.11138,5.75904 17.91721,14.33196 22.64067,22.95963 4.05359,3.58514 11.30534,7.01765 18.25338,4.86709 9.365,-3.14098 14.05424,-9.85697 18.80948,-15.69012 2.96871,-4.50276 10.74842,-6.51163 17.52805,-7.53209 7.10152,0.0592 -3.03619,3.74035 -4.32417,5.17348 -9.34797,8.31982 -15.30906,19.00002 -29.46537,24.42226 -10.11475,3.8861 -24.1438,2.53478 -31.57281,-3.57707 -10.23534,-7.90472 -12.22665,-19.72673 -25.70166,-25.91596 -6.76805,-3.32366 -17.10467,-3.76236 -23.33959,0.37902 -10.462,6.374 -13.87678,16.57259 -25.6828,22.11749 -2.56346,2.14851 -7.63304,4.66973 -11.33334,4.25545 1.21434,-1.1211 3.14884,-1.81036 4.80654,-2.6046 z"
           id="path32445" />
        <path
           style="fill:#000000;fill-opacity:0.84232333;fill-rule:nonzero;stroke:#000000;stroke-width:15;stroke-linecap:square;stroke-linejoin:miter;stroke-miterlimit:4;stroke-opacity:1;stroke-dasharray:none;stroke-dashoffset:1.50000015"
           d="m 276.41695,368.16185 c 6.31037,-12.82478 20.13682,-23.55431 36.2367,-31.58371 10.76695,-3.14185 23.96151,-2.25841 33.14492,2.72913 11.11138,5.75904 17.91721,14.33196 22.64067,22.95963 4.05359,3.58514 11.30534,7.01765 18.25338,4.86709 9.365,-3.14098 14.05424,-9.85697 18.80948,-15.69012 2.96871,-4.50276 10.74842,-6.51163 17.52805,-7.53209 7.10152,0.0592 -3.03619,3.74035 -4.32417,5.17348 -9.34797,8.31982 -15.30906,19.00002 -29.46537,24.42226 -10.11475,3.8861 -24.1438,2.53478 -31.57281,-3.57707 -10.23534,-7.90472 -12.22665,-19.72673 -25.70166,-25.91596 -6.76805,-3.32366 -17.10467,-3.76236 -23.33959,0.37902 -10.462,6.374 -13.87678,16.57259 -25.6828,22.11749 -2.56346,2.14851 -7.63304,4.66973 -11.33334,4.25545 1.21434,-1.1211 3.14884,-1.81036 4.80654,-2.6046 z"
           id="path32447" />
      </g>
      <g
         inkscape:label="Calque 1"
         id="g32428"
         transform="matrix(0.50507952,0,0,0.50507952,-572.34851,250.89257)"
         style="overflow:visible">
        <rect
           style="fill:#864167;fill-opacity:1;fill-rule:nonzero;stroke:#864167;stroke-width:15;stroke-linecap:square;stroke-linejoin:miter;stroke-miterlimit:4;stroke-opacity:1;stroke-dasharray:none;stroke-dashoffset:1.50000015000000000"
           id="rect32430"
           width="185.71428"
           height="185.71428"
           x="260"
           y="309.50504"
           ry="5.8772511" />
        <path
           style="fill:#ffffff;stroke:#fff8f8;stroke-width:1.97988629000000000;stroke-miterlimit:4;stroke-opacity:1;stroke-dasharray:none"
           d="m 350.59194,463.45312 c -0.63014,-0.24741 -2.27473,-1.43042 -3.65465,-2.6289 l -2.50894,-2.17907 -39.69129,0 -39.69129,0 0,-9.3948 c 0,-6.28866 -0.11015,-4.68271 -0.43434,-10.11848 0.11382,-31.0562 0.3544,-51.75303 0.59981,-81.73847 l 0.21643,-9.1181 3.05522,-0.20359 c 4.77969,-0.3185 6.20136,-0.79589 8.74573,-2.93684 2.21,-1.85959 2.60029,-1.93745 5.74373,-1.14593 4.60525,1.15961 18.48638,0.997 26.37412,-0.30898 21.01107,-3.47879 25.98494,-3.28099 36.46305,1.45 6.33898,2.86213 7.71018,2.90652 12.03857,0.38978 4.04141,-2.34988 11.66811,-4.50059 15.95968,-4.50059 2.29287,0 7.6651,0.68912 11.93829,1.53137 17.36249,3.42219 22.90855,3.57267 37.84261,1.02678 1.80717,-0.30808 2.9164,0.0813 4.83823,1.69842 1.91073,1.60777 3.59412,2.20348 7.20282,2.54886 l 4.70933,0.45072 0.3819,9.92946 0.3819,9.92948 -0.7638,12.22088 0,22.91416 0,22.91415 0.7638,11.45708 -0.3819,10.31137 -0.3819,10.31137 -40.24105,0.3819 -40.24107,0.3819 -2.15013,2.04599 c -2.26373,2.1541 -5.1939,3.1343 -7.11486,2.38008 z m 5.15569,-2.50817 c 3.24725,-1.9799 3.29426,-4.53606 0.13235,-7.19663 -2.84204,-2.39142 -3.72286,-2.44572 -6.33556,-0.39057 -3.62419,2.85079 -3.90317,4.27324 -1.34063,6.83578 2.663,2.663 4.16348,2.81245 7.54384,0.75142 z m -10.12042,-6.11882 c 0,-0.99651 -4.62527,-1.19544 -35.51693,-1.52762 l -35.51695,-0.3819 -0.16785,-1.90951 c -0.0923,-1.05023 -0.71667,-23.9071 -1.38745,-50.79304 -0.67077,-26.88595 -1.50393,-49.17355 -1.85148,-49.52802 -0.34753,-0.35447 -1.26989,-0.52217 -2.04968,-0.37268 -1.27181,0.24382 -1.44007,1.20966 -1.63422,9.38069 0.18533,34.66896 -0.34144,10.26769 -0.16547,43.86684 -0.51787,30.35391 -1.05112,11.61431 -0.46362,33.37828 0.25499,0.6645 0.46362,5.30775 0.46362,10.31831 l 0,9.11013 39.14502,-0.19789 c 34.19841,-0.17288 39.14501,-0.34266 39.14501,-1.34359 z m 92.80233,-9.16567 0.3819,-10.31136 -0.7638,-6.87425 0,-25.20557 0,-25.20558 0.7638,-7.63805 -0.3819,-9.92947 c -0.37433,-9.73271 -0.4177,-9.93453 -2.18856,-10.18508 -0.99366,-0.14059 -2.12107,0.0588 -2.50537,0.44311 -0.38501,0.38499 -1.19558,23.24171 -1.80525,50.90448 -0.60859,27.61317 -1.30594,50.52842 -1.54967,50.92279 -0.26587,0.43019 -14.63346,0.71703 -35.91502,0.71703 -29.05068,0 -35.47187,0.18436 -35.47187,1.01841 0,0.56013 0.23222,1.25064 0.51607,1.53448 0.28383,0.28384 18.07095,0.42705 39.52692,0.31826 l 39.01086,-0.19782 0.3819,-10.31138 -1e-5,0 z m -89.77079,5.38496 c 1.02144,-1.65273 -9.14756,-5.20195 -17.76957,-6.20199 -4.30722,-0.49958 -8.9543,-0.46261 -14.5123,0.11548 -16.24271,1.68941 -20.40101,1.88095 -26.73492,1.23151 l -6.43957,-0.66029 -2.55625,2.47761 c -1.40593,1.36269 -2.37748,2.76686 -2.15898,3.12038 0.5614,0.90839 69.60936,0.827 70.17159,-0.0827 z m 77.89366,0.0234 c 0.23865,-0.38615 -0.76437,-1.97264 -2.22894,-3.52553 -1.93436,-2.05102 -3.03329,-2.67375 -4.0169,-2.27629 -4.84724,1.95866 -12.0222,2.16697 -27.76643,0.80614 -8.84314,-0.76434 -18.37607,-1.19609 -21.1843,-0.95943 -7.70839,0.64959 -16.90496,4.10414 -15.77843,5.92692 0.59401,0.96112 70.38128,0.98882 70.975,0.0282 z M 279.47894,446.0158 c 2.28786,-2.60573 2.37003,-2.94539 2.35575,-9.73852 -0.008,-3.87123 -0.51706,-22.33381 -1.13092,-41.02794 -0.61386,-18.69414 -1.12277,-37.0076 -1.13091,-40.69661 -0.0171,-7.75834 -1.0278,-9.04872 -4.42587,-5.65064 l -1.98688,1.98687 0.92762,43.37579 c 0.95315,44.57006 1.39333,54.45095 2.42573,54.45095 0.32722,0 1.66168,-1.21495 2.96548,-2.6999 z m 72.45541,-46.1283 c 0.22696,-55.90213 1.16378,-49.87632 -8.45506,-54.38527 -5.25289,-2.46235 -5.86968,-2.57244 -14.27388,-2.54763 -5.37893,0.0159 -11.74449,0.59289 -16.42181,1.48859 -5.41282,1.03655 -11.1242,1.47404 -19.60412,1.50169 -6.58134,0.0215 -12.14964,0.22248 -12.374,0.44673 -0.22437,0.22423 0.26188,21.86526 1.08055,48.09116 1.17571,37.66398 1.70691,47.90187 2.528,48.72297 2.63439,2.63438 11.33443,3.07536 24.33332,1.23339 5.87273,-0.83218 11.66127,-1.10333 18.16664,-0.85096 8.20549,0.31831 10.40649,0.69364 15.65801,2.67008 10.28992,3.8727 9.13513,9.59223 9.36235,-46.37075 z m 10.11467,46.05943 c 6.76708,-2.43307 14.53424,-2.70101 31.35656,-1.08169 12.88646,1.24044 23.42587,0.84619 26.2139,-0.98059 1.85082,-1.2127 2.00992,-1.74252 2.05245,-6.8346 0.0253,-3.03598 0.6605,-24.59601 1.41144,-47.91116 1.02709,-31.88945 1.14848,-42.63007 0.48999,-43.35542 -0.66961,-0.73762 -1.83359,-0.78251 -4.95281,-0.19095 -6.96564,1.32101 -17.35747,0.89438 -29.09385,-1.19441 -14.77447,-2.62948 -21.14533,-2.36587 -28.8698,1.19456 -3.07346,1.41665 -6.07984,3.27776 -6.68083,4.1358 -0.91972,1.31308 -1.09271,9.19141 -1.09271,49.76444 0,26.5124 0.24905,48.45342 0.55343,48.75781 0.30439,0.30438 1.07774,0.37398 1.71856,0.15466 0.64083,-0.21933 3.74297,-1.32563 6.89367,-2.45845 z m 67.56962,1.81398 c 0.16875,-0.52511 0.72415,-22.72205 1.23424,-49.32652 l 0.92743,-48.37176 -1.95563,-1.95563 c -3.19598,-3.19597 -4.37079,-1.99347 -4.43173,4.53619 -0.0286,3.05886 -0.66684,24.29388 -1.41841,47.18895 -1.48052,45.10104 -1.60755,42.67382 2.46835,47.16496 1.756,1.9349 2.72456,2.16784 3.17575,0.76381 z"
           id="path2836"
           sodipodi:nodetypes="ccccccccccssssssssscccccccccccccccssscccccsssccccccccccccccssssssscccccsscccsccsssssccssscccsccssssssssssccsssssssssssscccccsssc" />
      </g>
    </g>
  </g>
</svg>
