<?xml version="1.0" encoding="UTF-8" standalone="no"?>
<!-- Created with Inkscape (http://www.inkscape.org/) -->

<svg
   xmlns:dc="http://purl.org/dc/elements/1.1/"
   xmlns:cc="http://creativecommons.org/ns#"
   xmlns:rdf="http://www.w3.org/1999/02/22-rdf-syntax-ns#"
   xmlns:svg="http://www.w3.org/2000/svg"
   xmlns="http://www.w3.org/2000/svg"
   xmlns:sodipodi="http://sodipodi.sourceforge.net/DTD/sodipodi-0.dtd"
   xmlns:inkscape="http://www.inkscape.org/namespaces/inkscape"
   width="113.54187"
   height="113.54187"
   id="svg29702"
   version="1.1"
   inkscape:version="0.47 r22583"
   sodipodi:docname="pict_musique.svg"
   inkscape:export-filename="C:\Documents and Settings\rtrujillo\Bureau\pict_musique.png"
   inkscape:export-xdpi="90"
   inkscape:export-ydpi="90">
  <defs
     id="defs29704">
    <inkscape:perspective
       sodipodi:type="inkscape:persp3d"
       inkscape:vp_x="0 : 526.18109 : 1"
       inkscape:vp_y="0 : 1000 : 0"
       inkscape:vp_z="744.09448 : 526.18109 : 1"
       inkscape:persp3d-origin="372.04724 : 350.78739 : 1"
       id="perspective29710" />
    <inkscape:perspective
       id="perspective29720"
       inkscape:persp3d-origin="0.5 : 0.33333333 : 1"
       inkscape:vp_z="1 : 0.5 : 1"
       inkscape:vp_y="0 : 1000 : 0"
       inkscape:vp_x="0 : 0.5 : 1"
       sodipodi:type="inkscape:persp3d" />
    <filter
       color-interpolation-filters="sRGB"
       inkscape:collect="always"
       id="filter32465">
      <feGaussianBlur
         inkscape:collect="always"
         stdDeviation="5.017857"
         id="feGaussianBlur32467" />
    </filter>
    <inkscape:perspective
       id="perspective3624"
       inkscape:persp3d-origin="0.5 : 0.33333333 : 1"
       inkscape:vp_z="1 : 0.5 : 1"
       inkscape:vp_y="0 : 1000 : 0"
       inkscape:vp_x="0 : 0.5 : 1"
       sodipodi:type="inkscape:persp3d" />
    <inkscape:perspective
       id="perspective3646"
       inkscape:persp3d-origin="0.5 : 0.33333333 : 1"
       inkscape:vp_z="1 : 0.5 : 1"
       inkscape:vp_y="0 : 1000 : 0"
       inkscape:vp_x="0 : 0.5 : 1"
       sodipodi:type="inkscape:persp3d" />
    <inkscape:perspective
       id="perspective2901"
       inkscape:persp3d-origin="0.5 : 0.33333333 : 1"
       inkscape:vp_z="1 : 0.5 : 1"
       inkscape:vp_y="0 : 1000 : 0"
       inkscape:vp_x="0 : 0.5 : 1"
       sodipodi:type="inkscape:persp3d" />
    <inkscape:perspective
       id="perspective2836"
       inkscape:persp3d-origin="0.5 : 0.33333333 : 1"
       inkscape:vp_z="1 : 0.5 : 1"
       inkscape:vp_y="0 : 1000 : 0"
       inkscape:vp_x="0 : 0.5 : 1"
       sodipodi:type="inkscape:persp3d" />
    <inkscape:perspective
       id="perspective2856"
       inkscape:persp3d-origin="0.5 : 0.33333333 : 1"
       inkscape:vp_z="1 : 0.5 : 1"
       inkscape:vp_y="0 : 1000 : 0"
       inkscape:vp_x="0 : 0.5 : 1"
       sodipodi:type="inkscape:persp3d" />
  </defs>
  <sodipodi:namedview
     id="base"
     pagecolor="#ffffff"
     bordercolor="#666666"
     borderopacity="1.0"
     inkscape:pageopacity="0.0"
     inkscape:pageshadow="2"
     inkscape:zoom="0.35"
     inkscape:cx="-652.22076"
     inkscape:cy="420.91937"
     inkscape:document-units="px"
     inkscape:current-layer="g32428"
     showgrid="false"
     inkscape:window-width="1680"
     inkscape:window-height="990"
     inkscape:window-x="-32000"
     inkscape:window-y="-32000"
     inkscape:window-maximized="1" />
  <metadata
     id="metadata29707">
    <rdf:RDF>
      <cc:Work
         rdf:about="">
        <dc:format>image/svg+xml</dc:format>
        <dc:type
           rdf:resource="http://purl.org/dc/dcmitype/StillImage" />
        <dc:title></dc:title>
      </cc:Work>
    </rdf:RDF>
  </metadata>
  <g
     inkscape:label="Calque 1"
     inkscape:groupmode="layer"
     id="layer1"
     transform="translate(-94.657638,-292.73411)">
    <g
       style="display:inline;overflow:visible"
       id="g29574"
       transform="translate(543.36084,-107.45073)">
      <g
         inkscape:label="Calque 1"
         id="g32439"
         transform="matrix(0.50507952,0,0,0.50507952,-570.15318,253.73088)"
         style="fill:#000000;stroke:#000000;stroke-opacity:1;overflow:visible;filter:url(#filter32465)">
        <rect
           style="fill:#000000;fill-opacity:1;fill-rule:nonzero;stroke:#000000;stroke-width:15;stroke-linecap:square;stroke-linejoin:miter;stroke-miterlimit:4;stroke-opacity:1;stroke-dasharray:none;stroke-dashoffset:1.50000015"
           id="rect32441"
           width="185.71428"
           height="185.71428"
           x="260"
           y="309.50504"
           ry="5.8772511" />
        <path
           style="fill:#000000;fill-opacity:0.84232333;fill-rule:nonzero;stroke:#000000;stroke-width:15;stroke-linecap:square;stroke-linejoin:miter;stroke-miterlimit:4;stroke-opacity:1;stroke-dasharray:none;stroke-dashoffset:1.50000015"
           d="m 276.28106,410.937 c 6.31037,-12.82478 20.13682,-23.55431 36.2367,-31.58371 10.76695,-3.14185 23.96151,-2.25841 33.14492,2.72913 11.11138,5.75904 17.91721,14.33196 22.64067,22.95963 4.05359,3.58514 11.30534,7.01765 18.25338,4.86709 9.365,-3.14098 14.05424,-9.85697 18.80948,-15.69012 2.96871,-4.50276 10.74842,-6.51163 17.52805,-7.53209 7.10152,0.0592 -3.03619,3.74035 -4.32417,5.17348 -9.34797,8.31982 -15.30906,19.00002 -29.46537,24.42226 -10.11475,3.8861 -24.1438,2.53478 -31.57281,-3.57707 -10.23534,-7.90472 -12.22665,-19.72673 -25.70166,-25.91596 -6.76805,-3.32366 -17.10467,-3.76236 -23.33959,0.37902 -10.462,6.374 -13.87678,16.57259 -25.6828,22.11749 -2.56346,2.14851 -7.63304,4.66973 -11.33334,4.25545 1.21434,-1.1211 3.14884,-1.81036 4.80654,-2.6046 z"
           id="path32443" />
        <path
           style="fill:#000000;fill-opacity:0.84232333;fill-rule:nonzero;stroke:#000000;stroke-width:15;stroke-linecap:square;stroke-linejoin:miter;stroke-miterlimit:4;stroke-opacity:1;stroke-dasharray:none;stroke-dashoffset:1.50000015"
           d="m 277.13123,452.44756 c 6.31037,-12.82478 20.13682,-23.55431 36.2367,-31.58371 10.76695,-3.14185 23.96151,-2.25841 33.14492,2.72913 11.11138,5.75904 17.91721,14.33196 22.64067,22.95963 4.05359,3.58514 11.30534,7.01765 18.25338,4.86709 9.365,-3.14098 14.05424,-9.85697 18.80948,-15.69012 2.96871,-4.50276 10.74842,-6.51163 17.52805,-7.53209 7.10152,0.0592 -3.03619,3.74035 -4.32417,5.17348 -9.34797,8.31982 -15.30906,19.00002 -29.46537,24.42226 -10.11475,3.8861 -24.1438,2.53478 -31.57281,-3.57707 -10.23534,-7.90472 -12.22665,-19.72673 -25.70166,-25.91596 -6.76805,-3.32366 -17.10467,-3.76236 -23.33959,0.37902 -10.462,6.374 -13.87678,16.57259 -25.6828,22.11749 -2.56346,2.14851 -7.63304,4.66973 -11.33334,4.25545 1.21434,-1.1211 3.14884,-1.81036 4.80654,-2.6046 z"
           id="path32445" />
        <path
           style="fill:#000000;fill-opacity:0.84232333;fill-rule:nonzero;stroke:#000000;stroke-width:15;stroke-linecap:square;stroke-linejoin:miter;stroke-miterlimit:4;stroke-opacity:1;stroke-dasharray:none;stroke-dashoffset:1.50000015"
           d="m 276.41695,368.16185 c 6.31037,-12.82478 20.13682,-23.55431 36.2367,-31.58371 10.76695,-3.14185 23.96151,-2.25841 33.14492,2.72913 11.11138,5.75904 17.91721,14.33196 22.64067,22.95963 4.05359,3.58514 11.30534,7.01765 18.25338,4.86709 9.365,-3.14098 14.05424,-9.85697 18.80948,-15.69012 2.96871,-4.50276 10.74842,-6.51163 17.52805,-7.53209 7.10152,0.0592 -3.03619,3.74035 -4.32417,5.17348 -9.34797,8.31982 -15.30906,19.00002 -29.46537,24.42226 -10.11475,3.8861 -24.1438,2.53478 -31.57281,-3.57707 -10.23534,-7.90472 -12.22665,-19.72673 -25.70166,-25.91596 -6.76805,-3.32366 -17.10467,-3.76236 -23.33959,0.37902 -10.462,6.374 -13.87678,16.57259 -25.6828,22.11749 -2.56346,2.14851 -7.63304,4.66973 -11.33334,4.25545 1.21434,-1.1211 3.14884,-1.81036 4.80654,-2.6046 z"
           id="path32447" />
      </g>
      <g
         inkscape:label="Calque 1"
         id="g32428"
         transform="matrix(0.50507952,0,0,0.50507952,-572.34851,250.89257)"
         style="overflow:visible">
        <rect
           style="fill:#d75d5d;fill-opacity:1;fill-rule:nonzero;stroke:#d75d5d;stroke-width:15;stroke-linecap:square;stroke-linejoin:miter;stroke-miterlimit:4;stroke-opacity:1;stroke-dasharray:none;stroke-dashoffset:1.50000015000000000"
           id="rect32430"
           width="185.71428"
           height="185.71428"
           x="260"
           y="309.50504"
           ry="5.8772511" />
        <path
           style="fill:#ffffff;display:inline;overflow:visible"
           d="m 347.11198,499.22081 c -3.76908,-0.80994 -8.62362,-3.62516 -11.00851,-6.384 -3.02839,-3.50323 -4.5302,-8.36742 -3.7984,-12.30251 0.8294,-4.45987 3.31494,-7.96136 6.93573,-9.77069 5.13444,-2.56572 11.12835,-0.22877 13.74878,5.36047 1.21745,2.59673 1.27937,6.92084 0.13021,9.09199 -1.5383,2.90635 -4.84724,5.23165 -8.14947,5.72683 -2.67329,0.40089 -2.19425,1.91353 1.12321,3.54671 6.44684,3.17376 16.0447,-0.0346 19.81458,-6.62373 0.55321,-0.96689 1.33124,-3.11663 1.72895,-4.77716 0.86979,-3.63156 0.74775,-6.73374 -0.49854,-12.6729 -2.46374,-11.74074 -2.89105,-14.00067 -2.70439,-14.30269 0.11274,-0.18243 0.75175,-0.56012 1.42003,-0.83936 1.15537,-0.48274 1.24482,-0.47089 1.82165,0.24146 0.33363,0.41202 0.60661,1.03206 0.60661,1.37785 0,0.34582 0.83834,4.82374 1.86299,9.95093 1.36783,6.84443 1.86143,10.06603 1.85712,12.1207 -0.0197,9.40763 -4.57727,16.08561 -13.13527,19.24674 -2.53259,0.93549 -3.47384,1.10398 -6.67438,1.19481 -2.0493,0.0581 -4.3357,-0.0253 -5.0809,-0.18545 z m 0,-45.05881 c -10.7969,-2.17915 -19.58483,-8.9246 -25.20597,-19.34762 -1.75463,-3.25353 -2.91456,-6.37299 -4.01181,-10.78921 -0.78366,-3.15408 -0.88696,-4.24466 -0.88376,-9.32992 0.003,-4.83282 0.12553,-6.24234 0.76208,-8.76952 3.07343,-12.20187 11.04016,-23.39457 29.00073,-40.744 9.03565,-8.72819 12.49787,-12.9538 15.49946,-18.91702 2.96271,-5.88594 4.76625,-13.62842 4.02936,-17.29771 -0.55804,-2.77866 -1.76884,-4.66801 -3.54144,-5.52613 -1.85802,-0.89944 -2.38945,-0.88744 -4.47066,0.10101 -5.82311,2.7656 -10.13202,12.52973 -10.55419,23.91607 -0.10015,2.70135 -0.0259,6.12199 0.16504,7.60142 0.37452,2.902 0.15615,3.78582 -1.24964,5.05804 -1.45917,1.32054 -1.78775,0.50342 -2.9369,-7.30366 -0.33801,-2.29641 -0.54239,-6.13662 -0.55884,-10.50054 -0.0232,-6.15191 0.0692,-7.35596 0.8726,-11.3767 2.29634,-11.49196 6.28895,-19.53588 11.56555,-23.30118 2.93216,-2.09234 3.58882,-2.07011 5.66869,0.19185 3.13906,3.41387 6.87712,12.75743 8.74052,21.84762 2.31934,11.31431 0.56465,22.65678 -5.33316,34.47395 -3.30906,6.63021 -7.82185,12.45357 -14.36187,18.53274 -13.86372,12.88675 -18.95987,19.07623 -22.51867,27.34978 -2.05236,4.77137 -2.6545,7.78032 -2.66189,13.30152 -0.008,5.81234 0.42973,7.81626 2.71779,12.44809 4.34635,8.79861 13.56474,14.37852 24.60861,14.89566 7.17995,0.3362 13.38904,-1.27617 17.24739,-4.47874 5.7879,-4.80421 8.67564,-12.39506 7.23214,-19.01076 -0.89363,-4.09556 -2.57046,-7.28374 -5.21412,-9.91368 -3.55014,-3.53172 -7.62435,-5.16593 -12.84493,-5.15226 -2.42843,0.006 -3.09798,0.14806 -5.00868,1.05995 -1.25147,0.59728 -3.15011,1.93621 -4.38913,3.09525 -3.53379,3.30568 -5.24349,7.05822 -5.24349,11.50872 0,4.44516 2.01299,7.73373 6.58116,10.7515 2.46747,1.63002 2.95318,2.49231 1.81004,3.21336 -0.97944,0.61782 -5.22326,-1.72498 -8.13525,-4.49108 -4.40381,-4.18318 -6.69175,-9.49648 -6.69175,-15.54026 0,-1.57343 0.24127,-3.79187 0.53615,-4.92987 2.08107,-8.03111 9.1861,-15.31052 16.90646,-17.32142 2.55336,-0.66507 8.13394,-0.67189 10.92698,-0.0134 8.33295,1.96471 15.02003,8.98843 17.74161,18.63477 1.02197,3.62225 1.1046,11.42325 0.15423,14.55912 -2.59339,8.55721 -8.25388,14.87787 -17.23047,19.23998 -5.53086,2.68769 -13.25682,3.57869 -19.71997,2.27423 z m 15.4635,-8.087 c -0.65154,-0.42512 -6.50246,-29.82671 -6.09291,-30.61762 0.34908,-0.67409 2.79588,-0.84693 3.18046,-0.22466 0.2868,0.46405 5.90361,28.33754 5.90704,29.31371 0.002,0.39637 -0.18886,0.87949 -0.42277,1.07362 -0.64922,0.53881 -2.06064,0.78847 -2.57182,0.45495 z m -10.01427,-49.07823 c -0.59588,-1.90507 -2.18207,-10.31946 -2.0233,-10.7332 0.29408,-0.76636 2.33805,-2.19492 2.7639,-1.93173 0.38974,0.24087 2.44386,9.99417 2.44633,11.61561 8e-4,0.70365 -0.22982,0.97896 -1.06535,1.27023 -1.47211,0.51318 -1.9061,0.46799 -2.12158,-0.22091 z"
           id="path2844" />
      </g>
    </g>
  </g>
</svg>
