<?xml version="1.0" encoding="UTF-8" standalone="no"?>
<!-- Created with Inkscape (http://www.inkscape.org/) -->

<svg
   xmlns:dc="http://purl.org/dc/elements/1.1/"
   xmlns:cc="http://creativecommons.org/ns#"
   xmlns:rdf="http://www.w3.org/1999/02/22-rdf-syntax-ns#"
   xmlns:svg="http://www.w3.org/2000/svg"
   xmlns="http://www.w3.org/2000/svg"
   xmlns:sodipodi="http://sodipodi.sourceforge.net/DTD/sodipodi-0.dtd"
   xmlns:inkscape="http://www.inkscape.org/namespaces/inkscape"
   width="15.145697"
   height="39.999962"
   id="svg3030"
   version="1.1"
   inkscape:version="0.48.3.1 r9886"
   sodipodi:docname="Nouveau document 5">
  <defs
     id="defs3032" />
  <sodipodi:namedview
     id="base"
     pagecolor="#ffffff"
     bordercolor="#666666"
     borderopacity="1.0"
     inkscape:pageopacity="0.0"
     inkscape:pageshadow="2"
     inkscape:zoom="0.98994949"
     inkscape:cx="109.71441"
     inkscape:cy="109.78568"
     inkscape:document-units="px"
     inkscape:current-layer="layer1"
     showgrid="false"
     fit-margin-top="0"
     fit-margin-left="0"
     fit-margin-right="0"
     fit-margin-bottom="0"
     inkscape:window-width="968"
     inkscape:window-height="734"
     inkscape:window-x="598"
     inkscape:window-y="159"
     inkscape:window-maximized="0" />
  <metadata
     id="metadata3035">
    <rdf:RDF>
      <cc:Work
         rdf:about="">
        <dc:format>image/svg+xml</dc:format>
        <dc:type
           rdf:resource="http://purl.org/dc/dcmitype/StillImage" />
        <dc:title></dc:title>
      </cc:Work>
    </rdf:RDF>
  </metadata>
  <g
     inkscape:label="Calque 1"
     inkscape:groupmode="layer"
     id="layer1"
     transform="translate(-265.28559,-716.43362)">
    <path
       style="fill:#000000"
       d="m 270.00159,756.31801 c -0.48578,-0.17668 -0.77503,-0.43417 -0.99819,-0.88859 l -0.20119,-0.40967 -0.0191,-13.033 -0.0191,-13.033 -0.32286,0 -0.32287,0 -0.0206,4.83979 -0.0206,4.83979 -0.19837,0.33745 c -0.44017,0.74877 -1.66336,0.87378 -2.24595,0.22954 -0.35178,-0.38901 -0.34717,-0.30796 -0.34717,-6.09807 0,-3.58581 0.0267,-5.57294 0.0786,-5.85721 0.0432,-0.23662 0.20563,-0.70235 0.3609,-1.03496 0.50897,-1.09031 1.65817,-2.02491 2.77495,-2.25676 0.26657,-0.0553 1.69518,-0.0738 4.55068,-0.0588 4.05976,0.0214 4.17226,0.0257 4.57338,0.17823 1.21668,0.46254 2.17399,1.47869 2.61739,2.77828 0.15966,0.46793 0.16097,0.51059 0.18361,5.98176 0.0168,4.05785 4.3e-4,5.58693 -0.0622,5.8005 -0.12058,0.41169 -0.32473,0.66859 -0.67215,0.84583 -0.67059,0.34211 -1.49771,0.10648 -1.86242,-0.53056 l -0.18048,-0.31527 -0.021,-4.83979 -0.021,-4.83979 -0.32337,0 -0.32338,0 0,12.9657 c 0,14.57213 0.0466,13.38377 -0.54841,13.9788 -0.33104,0.33104 -0.84521,0.53537 -1.34719,0.53537 -0.45475,0 -1.03134,-0.26036 -1.35556,-0.6121 -0.54524,-0.59151 -0.51917,-0.15543 -0.51917,-8.68186 l 0,-7.6 -0.32628,0 -0.32627,0 0,7.6 c 0,8.46252 0.0212,8.0867 -0.48857,8.65097 -0.14457,0.16003 -0.39463,0.35819 -0.5557,0.44036 -0.39127,0.19961 -1.07164,0.23933 -1.49043,0.087 z m 2.42594,-33.43108 c -1.24883,-0.17666 -2.23993,-1.02358 -2.69447,-2.30249 -0.14564,-0.40979 -0.13906,-1.40006 0.0123,-1.85587 0.39914,-1.20167 1.37605,-2.0568 2.57362,-2.25277 1.63801,-0.26804 3.24278,0.76761 3.65755,2.36043 0.42415,1.62884 -0.44039,3.28683 -2.01877,3.87153 -0.38458,0.14247 -1.15341,0.23249 -1.53026,0.17917 z"
       id="path3049"
       inkscape:connector-curvature="0" />
  </g>
</svg>
