<?xml version="1.0" encoding="UTF-8" standalone="no"?>
<!-- Created with Inkscape (http://www.inkscape.org/) -->

<svg
   xmlns:dc="http://purl.org/dc/elements/1.1/"
   xmlns:cc="http://creativecommons.org/ns#"
   xmlns:rdf="http://www.w3.org/1999/02/22-rdf-syntax-ns#"
   xmlns:svg="http://www.w3.org/2000/svg"
   xmlns="http://www.w3.org/2000/svg"
   xmlns:sodipodi="http://sodipodi.sourceforge.net/DTD/sodipodi-0.dtd"
   xmlns:inkscape="http://www.inkscape.org/namespaces/inkscape"
   width="18.27602"
   height="39.999962"
   id="svg2"
   version="1.1"
   inkscape:version="0.48.3.1 r9886"
   sodipodi:docname="Nouveau document 1">
  <defs
     id="defs4" />
  <sodipodi:namedview
     id="base"
     pagecolor="#ffffff"
     bordercolor="#666666"
     borderopacity="1.0"
     inkscape:pageopacity="0.0"
     inkscape:pageshadow="2"
     inkscape:zoom="0.98994949"
     inkscape:cx="-208.86029"
     inkscape:cy="-133.98032"
     inkscape:document-units="px"
     inkscape:current-layer="layer1"
     showgrid="false"
     fit-margin-top="0"
     fit-margin-left="0"
     fit-margin-right="0"
     fit-margin-bottom="0"
     inkscape:window-width="1615"
     inkscape:window-height="1026"
     inkscape:window-x="65"
     inkscape:window-y="24"
     inkscape:window-maximized="1" />
  <metadata
     id="metadata7">
    <rdf:RDF>
      <cc:Work
         rdf:about="">
        <dc:format>image/svg+xml</dc:format>
        <dc:type
           rdf:resource="http://purl.org/dc/dcmitype/StillImage" />
        <dc:title></dc:title>
      </cc:Work>
    </rdf:RDF>
  </metadata>
  <g
     inkscape:label="Calque 1"
     inkscape:groupmode="layer"
     id="layer1"
     transform="translate(-357.04979,-424.16447)">
    <path
       style="fill:#000000"
       d="m 363.6418,464.06733 c -0.36634,-0.12959 -0.79741,-0.58525 -0.89867,-0.94994 -0.0526,-0.18954 -0.0781,-2.15549 -0.0783,-6.05463 l -4.4e-4,-5.77396 -2.0321,0 c -1.90133,0 -2.02969,-0.008 -1.99465,-0.1267 0.0206,-0.0697 0.98506,-3.41731 2.14325,-7.43918 1.15819,-4.02186 2.12314,-7.36949 2.14433,-7.43917 0.0327,-0.10764 -0.0106,-0.12671 -0.28788,-0.12671 -0.17952,0 -0.34285,0.0266 -0.36296,0.0591 -0.0201,0.0325 -0.62045,2.01996 -1.3341,4.41649 -0.86917,2.91882 -1.35888,4.45004 -1.48335,4.63813 -0.25673,0.38794 -0.74156,0.61648 -1.21195,0.57129 -0.45004,-0.0432 -0.87194,-0.31673 -1.05337,-0.6828 -0.29302,-0.59123 -0.26057,-0.73507 1.36835,-6.06568 1.00454,-3.28732 1.57843,-5.05242 1.73017,-5.32145 0.30436,-0.5396 1.21918,-1.43306 1.75886,-1.71779 0.82615,-0.43587 1.03051,-0.45858 4.12684,-0.45858 2.31401,0 2.8803,0.0199 3.24758,0.11402 1.11978,0.28703 2.25461,1.24687 2.82355,2.38819 0.0981,0.19669 0.83624,2.52134 1.64043,5.1659 1.38483,4.55405 1.4607,4.83393 1.43475,5.29325 -0.0222,0.39358 -0.0654,0.53473 -0.22891,0.74913 -0.60951,0.79911 -1.77485,0.70364 -2.23503,-0.1831 -0.0734,-0.14148 -0.71523,-2.2086 -1.42623,-4.59359 l -1.29274,-4.33636 -0.3803,-0.0222 c -0.33726,-0.0197 -0.37622,-0.007 -0.34425,0.1086 0.0198,0.072 1.00153,3.44227 2.18155,7.48961 1.18001,4.04733 2.14548,7.39496 2.14548,7.43917 0,0.057 -0.58947,0.0804 -2.02599,0.0804 l -2.02599,0 -0.0193,5.96028 -0.0193,5.96028 -0.20438,0.3088 c -0.28501,0.43064 -0.85517,0.69217 -1.38889,0.63709 -0.63271,-0.0653 -1.01741,-0.33235 -1.27368,-0.88413 -0.12753,-0.27457 -0.13458,-0.59291 -0.13609,-6.13596 l -0.001,-5.84636 -0.47061,0 -0.4706,0 -10e-4,5.88256 c -10e-4,5.58887 -0.008,5.89743 -0.13692,6.18057 -0.3043,0.67009 -1.15707,0.98702 -1.92491,0.7154 z m 2.17203,-33.46475 c -0.43594,-0.0608 -0.96283,-0.24633 -1.29121,-0.45458 -1.7697,-1.12231 -2.05592,-3.56422 -0.58964,-5.0305 1.87449,-1.87448 5.04297,-0.83204 5.47958,1.80281 0.28265,1.70578 -0.95027,3.38011 -2.69372,3.65813 -0.4787,0.0763 -0.52255,0.0775 -0.90501,0.0241 z"
       id="path3009"
       inkscape:connector-curvature="0" />
  </g>
</svg>
