<?xml version="1.0" encoding="UTF-8" standalone="no"?>
<!-- Created with Inkscape (http://www.inkscape.org/) -->

<svg
   xmlns:dc="http://purl.org/dc/elements/1.1/"
   xmlns:cc="http://creativecommons.org/ns#"
   xmlns:rdf="http://www.w3.org/1999/02/22-rdf-syntax-ns#"
   xmlns:svg="http://www.w3.org/2000/svg"
   xmlns="http://www.w3.org/2000/svg"
   xmlns:sodipodi="http://sodipodi.sourceforge.net/DTD/sodipodi-0.dtd"
   xmlns:inkscape="http://www.inkscape.org/namespaces/inkscape"
   width="210mm"
   height="297mm"
   id="svg3076"
   version="1.1"
   inkscape:version="0.48.3.1 r9886"
   sodipodi:docname="toilettes-handicape.svg">
  <defs
     id="defs3078" />
  <sodipodi:namedview
     id="base"
     pagecolor="#ffffff"
     bordercolor="#666666"
     borderopacity="1.0"
     inkscape:pageopacity="0.0"
     inkscape:pageshadow="2"
     inkscape:zoom="3.959798"
     inkscape:cx="451.47279"
     inkscape:cy="623.17079"
     inkscape:document-units="px"
     inkscape:current-layer="layer1"
     showgrid="false"
     inkscape:window-width="1615"
     inkscape:window-height="1026"
     inkscape:window-x="65"
     inkscape:window-y="24"
     inkscape:window-maximized="1" />
  <metadata
     id="metadata3081">
    <rdf:RDF>
      <cc:Work
         rdf:about="">
        <dc:format>image/svg+xml</dc:format>
        <dc:type
           rdf:resource="http://purl.org/dc/dcmitype/StillImage" />
        <dc:title></dc:title>
      </cc:Work>
    </rdf:RDF>
  </metadata>
  <g
     inkscape:label="Calque 1"
     inkscape:groupmode="layer"
     id="layer1">
    <g
       transform="translate(130.86096,-24.920424)"
       id="layer1-1"
       inkscape:label="Calque 1"
       inkscape:export-filename="/home/loic/Images/picto/svg/toilettes-handicape.png"
       inkscape:export-xdpi="90.348091"
       inkscape:export-ydpi="90.348091">
      <path
         inkscape:connector-curvature="0"
         id="path3009"
         d="m 363.6418,464.06733 c -0.36634,-0.12959 -0.79741,-0.58525 -0.89867,-0.94994 -0.0526,-0.18954 -0.0781,-2.15549 -0.0783,-6.05463 l -4.4e-4,-5.77396 -2.0321,0 c -1.90133,0 -2.02969,-0.008 -1.99465,-0.1267 0.0206,-0.0697 0.98506,-3.41731 2.14325,-7.43918 1.15819,-4.02186 2.12314,-7.36949 2.14433,-7.43917 0.0327,-0.10764 -0.0106,-0.12671 -0.28788,-0.12671 -0.17952,0 -0.34285,0.0266 -0.36296,0.0591 -0.0201,0.0325 -0.62045,2.01996 -1.3341,4.41649 -0.86917,2.91882 -1.35888,4.45004 -1.48335,4.63813 -0.25673,0.38794 -0.74156,0.61648 -1.21195,0.57129 -0.45004,-0.0432 -0.87194,-0.31673 -1.05337,-0.6828 -0.29302,-0.59123 -0.26057,-0.73507 1.36835,-6.06568 1.00454,-3.28732 1.57843,-5.05242 1.73017,-5.32145 0.30436,-0.5396 1.21918,-1.43306 1.75886,-1.71779 0.82615,-0.43587 1.03051,-0.45858 4.12684,-0.45858 2.31401,0 2.8803,0.0199 3.24758,0.11402 1.11978,0.28703 2.25461,1.24687 2.82355,2.38819 0.0981,0.19669 0.83624,2.52134 1.64043,5.1659 1.38483,4.55405 1.4607,4.83393 1.43475,5.29325 -0.0222,0.39358 -0.0654,0.53473 -0.22891,0.74913 -0.60951,0.79911 -1.77485,0.70364 -2.23503,-0.1831 -0.0734,-0.14148 -0.71523,-2.2086 -1.42623,-4.59359 l -1.29274,-4.33636 -0.3803,-0.0222 c -0.33726,-0.0197 -0.37622,-0.007 -0.34425,0.1086 0.0198,0.072 1.00153,3.44227 2.18155,7.48961 1.18001,4.04733 2.14548,7.39496 2.14548,7.43917 0,0.057 -0.58947,0.0804 -2.02599,0.0804 l -2.02599,0 -0.0193,5.96028 -0.0193,5.96028 -0.20438,0.3088 c -0.28501,0.43064 -0.85517,0.69217 -1.38889,0.63709 -0.63271,-0.0653 -1.01741,-0.33235 -1.27368,-0.88413 -0.12753,-0.27457 -0.13458,-0.59291 -0.13609,-6.13596 l -0.001,-5.84636 -0.47061,0 -0.4706,0 -10e-4,5.88256 c -10e-4,5.58887 -0.008,5.89743 -0.13692,6.18057 -0.3043,0.67009 -1.15707,0.98702 -1.92491,0.7154 z m 2.17203,-33.46475 c -0.43594,-0.0608 -0.96283,-0.24633 -1.29121,-0.45458 -1.7697,-1.12231 -2.05592,-3.56422 -0.58964,-5.0305 1.87449,-1.87448 5.04297,-0.83204 5.47958,1.80281 0.28265,1.70578 -0.95027,3.38011 -2.69372,3.65813 -0.4787,0.0763 -0.52255,0.0775 -0.90501,0.0241 z"
         style="fill:#000000" />
    </g>
    <g
       transform="translate(198.12497,-317.18958)"
       id="layer1-3"
       inkscape:label="Calque 1"
       inkscape:export-filename="/home/loic/Images/picto/svg/toilettes-handicape.png"
       inkscape:export-xdpi="90.348091"
       inkscape:export-ydpi="90.348091">
      <path
         inkscape:connector-curvature="0"
         id="path3049"
         d="m 270.00159,756.31801 c -0.48578,-0.17668 -0.77503,-0.43417 -0.99819,-0.88859 l -0.20119,-0.40967 -0.0191,-13.033 -0.0191,-13.033 -0.32286,0 -0.32287,0 -0.0206,4.83979 -0.0206,4.83979 -0.19837,0.33745 c -0.44017,0.74877 -1.66336,0.87378 -2.24595,0.22954 -0.35178,-0.38901 -0.34717,-0.30796 -0.34717,-6.09807 0,-3.58581 0.0267,-5.57294 0.0786,-5.85721 0.0432,-0.23662 0.20563,-0.70235 0.3609,-1.03496 0.50897,-1.09031 1.65817,-2.02491 2.77495,-2.25676 0.26657,-0.0553 1.69518,-0.0738 4.55068,-0.0588 4.05976,0.0214 4.17226,0.0257 4.57338,0.17823 1.21668,0.46254 2.17399,1.47869 2.61739,2.77828 0.15966,0.46793 0.16097,0.51059 0.18361,5.98176 0.0168,4.05785 4.3e-4,5.58693 -0.0622,5.8005 -0.12058,0.41169 -0.32473,0.66859 -0.67215,0.84583 -0.67059,0.34211 -1.49771,0.10648 -1.86242,-0.53056 l -0.18048,-0.31527 -0.021,-4.83979 -0.021,-4.83979 -0.32337,0 -0.32338,0 0,12.9657 c 0,14.57213 0.0466,13.38377 -0.54841,13.9788 -0.33104,0.33104 -0.84521,0.53537 -1.34719,0.53537 -0.45475,0 -1.03134,-0.26036 -1.35556,-0.6121 -0.54524,-0.59151 -0.51917,-0.15543 -0.51917,-8.68186 l 0,-7.6 -0.32628,0 -0.32627,0 0,7.6 c 0,8.46252 0.0212,8.0867 -0.48857,8.65097 -0.14457,0.16003 -0.39463,0.35819 -0.5557,0.44036 -0.39127,0.19961 -1.07164,0.23933 -1.49043,0.087 z m 2.42594,-33.43108 c -1.24883,-0.17666 -2.23993,-1.02358 -2.69447,-2.30249 -0.14564,-0.40979 -0.13906,-1.40006 0.0123,-1.85587 0.39914,-1.20167 1.37605,-2.0568 2.57362,-2.25277 1.63801,-0.26804 3.24278,0.76761 3.65755,2.36043 0.42415,1.62884 -0.44039,3.28683 -2.01877,3.87153 -0.38458,0.14247 -1.15341,0.23249 -1.53026,0.17917 z"
         style="fill:#000000" />
    </g>
    <g
       style="overflow:visible"
       id="g3111"
       transform="matrix(0.07253859,0,0,0.07253859,513.03077,399.24402)"
       inkscape:export-filename="/home/loic/Images/picto/svg/toilettes-handicape.png"
       inkscape:export-xdpi="90.348091"
       inkscape:export-ydpi="90.348091">
      <path
         id="path3101"
         d="M 161.98828,98.124023 C 186.95117,95.819336 206.3457,74.312988 206.3457,49.158203 206.3457,22.083008 184.2627,0 157.1875,0 c -27.0752,0 -49.15723,22.083008 -49.15723,49.158203 0,8.256836 2.30371,16.705567 6.14453,23.810547 l 17.51563,246.4668 180.39648,0.0488 73.99121,173.36524 97.14454,-38.09766 -15.04297,-35.82031 -54.36621,19.625 -71.59082,-165.28027 -167.7295,1.12695 -2.30273,-31.21289 121.42285,0.0483 V 197.0556 l -126.05469,-0.0493 -5.57031,-98.882327 z"
         clip-rule="evenodd"
         inkscape:connector-curvature="0"
         style="fill:#000000;fill-rule:evenodd" />
      <path
         id="path3103"
         d="m 343.41992,451.59082 c -30.44726,60.1875 -94.1748,99.83984 -162.15039,99.83984 C 81.429687,551.43066 0,470.00098 0,370.16113 0,300.06055 42.485352,234.91748 105.88184,206.04004 l 4.10254,53.5376 c -37.497075,23.62841 -60.61231,66.2622 -60.61231,110.95068 0,72.42676 59.07129,131.49707 131.49707,131.49707 66.26172,0 122.76465,-50.85156 130.46973,-116.08691 l 32.08105,65.65234 z"
         clip-rule="evenodd"
         inkscape:connector-curvature="0"
         style="fill:#000000;fill-rule:evenodd" />
    </g>
    <rect
       style="fill:#000000;fill-opacity:1;fill-rule:evenodd;stroke:none"
       id="rect3115"
       width="2.3463418"
       height="39.056965"
       x="482.5719"
       y="399.71555"
       ry="1.9539678"
       inkscape:export-filename="/home/loic/Images/picto/svg/toilettes-handicape.png"
       inkscape:export-xdpi="90.348091"
       inkscape:export-ydpi="90.348091" />
  </g>
</svg>
